# Blender v2.92.0 OBJ File: 'untitled4.blend'
# www.blender.org
mtllib untitled4.mtl
o Sphere
v -0.046641 0.871001 -0.079478
v -0.017538 0.879133 -0.546198
v 0.041915 0.639573 -0.611326
v 0.053471 0.352516 -0.624846
v 0.002606 0.135110 -0.919358
v 0.000000 -0.534788 -1.000000
v -0.012968 0.853373 -0.062513
v 0.046341 0.876753 -0.186752
v 0.159124 1.005248 -0.411418
v 0.220835 0.913295 -0.528725
v 0.254322 0.669308 -0.599641
v 0.262451 0.360450 -0.606058
v 0.340712 0.087294 -0.828354
v 0.382684 -0.534788 -0.923880
v 0.012330 0.844901 -0.033496
v 0.095235 0.839030 -0.125014
v 0.259512 0.960463 -0.295761
v 0.473834 1.015346 -0.506980
v 0.513189 0.696580 -0.509749
v 0.530494 0.400174 -0.523283
v 0.645050 0.187483 -0.644028
v 0.707107 -0.534788 -0.707107
v 0.029729 0.847625 0.003588
v 0.133653 0.837161 -0.048960
v 0.342914 0.953226 -0.148588
v 0.639714 0.978743 -0.258141
v 0.611933 0.683440 -0.271347
v 0.683293 0.412352 -0.301917
v 0.872971 0.144337 -0.360950
v 0.923880 -0.534788 -0.382683
v 0.037278 0.862103 0.044598
v 0.158309 0.873305 0.035015
v 0.399042 0.993268 0.015640
v 0.666666 0.922278 0.010065
v 0.599040 0.643039 -0.013087
v 0.679315 0.386156 -0.015064
v 0.941551 0.135833 0.000665
v 1.000000 -0.534788 0.000000
v 0.032635 0.885967 0.085563
v 0.151042 0.918990 0.122634
v 0.360749 0.987710 0.167022
v 0.526097 0.875978 0.234017
v 0.533807 0.622602 0.225421
v 0.594358 0.339982 0.227662
v 0.807479 0.041464 0.339109
v 0.923880 -0.534788 0.382684
v 0.015171 0.920512 0.121780
v 0.105468 0.996961 0.211416
v 0.234001 1.037268 0.345455
v 0.394311 0.926639 0.489677
v 0.382656 0.617110 0.413340
v 0.326427 0.272023 0.311930
v 0.563354 0.002763 0.584552
v 0.707107 -0.534788 0.707107
v -0.014110 0.955395 0.146700
v 0.031449 1.073116 0.283248
v 0.118636 1.085142 0.474860
v 0.250571 1.042340 0.738603
v 0.222832 0.656592 0.612125
v 0.155774 0.288405 0.506084
v 0.293927 -0.005580 0.778038
v 0.382683 -0.534788 0.923880
v -0.051335 0.975713 0.154429
v -0.050739 1.054118 0.291214
v -0.021676 1.001551 0.437212
v 0.016336 0.883648 0.599955
v 0.018319 0.642157 0.667363
v -0.014712 0.353443 0.743741
v -0.015047 0.055401 0.899644
v -0.000000 -0.534788 1.000000
v -0.090371 0.980402 0.143207
v -0.139026 1.029275 0.255960
v -0.163488 0.947095 0.365274
v -0.161813 0.816326 0.488623
v -0.135990 0.608319 0.580027
v -0.138563 0.300231 0.639700
v -0.303056 -0.051541 0.761882
v -0.382684 -0.534788 0.923880
v -0.126222 0.977253 0.113624
v -0.230957 1.046071 0.197184
v -0.300861 0.930944 0.270444
v -0.333434 0.775132 0.354467
v -0.017732 0.519707 0.391128
v -0.078644 0.197317 0.447269
v -0.481302 -0.147225 0.526806
v -0.707107 -0.534788 0.707107
v -0.054639 0.885380 0.039556
v -0.153177 0.968166 0.067390
v -0.317588 1.080747 0.094287
v -0.427042 0.927016 0.145373
v -0.488766 0.707653 0.174512
v 0.069993 0.390540 0.223153
v -0.111443 0.057956 0.250951
v -0.731173 -0.079164 0.311441
v -0.923880 -0.534788 0.382683
v -0.163781 0.954268 0.014132
v -0.347316 1.069958 -0.026900
v -0.462204 0.891033 -0.023064
v -0.478947 0.622659 -0.051938
v 0.044749 0.381271 0.007027
v -0.090551 0.101261 -0.024436
v -0.733778 -0.153477 -0.058056
v -1.000000 -0.534788 -0.000000
v -0.154402 0.936439 -0.033884
v -0.318913 1.051022 -0.131698
v -0.409915 0.883310 -0.183343
v -0.375159 0.636212 -0.248614
v 0.030368 0.435047 -0.182007
v -0.112353 0.203008 -0.231520
v -0.759615 -0.021450 -0.364433
v -0.923880 -0.534788 -0.382684
v -0.126325 0.915009 -0.067163
v -0.247117 1.035275 -0.208515
v -0.318559 0.934541 -0.299833
v -0.299724 0.740688 -0.385655
v -0.027212 0.539532 -0.381591
v -0.177247 0.294410 -0.411590
v -0.623350 0.024981 -0.632697
v -0.707107 -0.534788 -0.707107
v -0.086894 0.893547 -0.081719
v -0.133539 0.986956 -0.235994
v -0.185616 0.984048 -0.378678
v -0.175749 0.821744 -0.477532
v -0.086293 0.611252 -0.544012
v -0.119252 0.349438 -0.576471
v -0.342592 0.082832 -0.835640
v -0.382683 -0.534788 -0.923880
v -0.025676 0.924605 -0.224369
v -0.009865 1.019568 -0.452872
vt 0.750000 0.625000
vt 0.750000 0.687500
vt 0.687500 0.687500
vt 0.687500 0.625000
vt 0.750000 0.562500
vt 0.687500 0.562500
vt 0.750000 0.500000
vt 0.687500 0.500000
vt 0.750000 0.937500
vt 0.718750 1.000000
vt 0.687500 0.937500
vt 0.750000 0.875000
vt 0.687500 0.875000
vt 0.750000 0.812500
vt 0.687500 0.812500
vt 0.750000 0.750000
vt 0.687500 0.750000
vt 0.625000 0.750000
vt 0.625000 0.687500
vt 0.625000 0.625000
vt 0.625000 0.562500
vt 0.625000 0.500000
vt 0.656250 1.000000
vt 0.625000 0.937500
vt 0.625000 0.875000
vt 0.625000 0.812500
vt 0.593750 1.000000
vt 0.562500 0.937500
vt 0.562500 0.875000
vt 0.562500 0.812500
vt 0.562500 0.750000
vt 0.562500 0.687500
vt 0.562500 0.625000
vt 0.562500 0.562500
vt 0.562500 0.500000
vt 0.500000 0.750000
vt 0.500000 0.687500
vt 0.500000 0.625000
vt 0.500000 0.562500
vt 0.500000 0.500000
vt 0.531250 1.000000
vt 0.500000 0.937500
vt 0.500000 0.875000
vt 0.500000 0.812500
vt 0.437500 0.937500
vt 0.437500 0.875000
vt 0.437500 0.812500
vt 0.437500 0.750000
vt 0.437500 0.687500
vt 0.437500 0.625000
vt 0.437500 0.562500
vt 0.437500 0.500000
vt 0.468750 1.000000
vt 0.375000 0.687500
vt 0.375000 0.625000
vt 0.375000 0.562500
vt 0.375000 0.500000
vt 0.406250 1.000000
vt 0.375000 0.937500
vt 0.375000 0.875000
vt 0.375000 0.812500
vt 0.375000 0.750000
vt 0.312500 0.937500
vt 0.312500 0.875000
vt 0.312500 0.812500
vt 0.312500 0.750000
vt 0.312500 0.687500
vt 0.312500 0.625000
vt 0.312500 0.562500
vt 0.312500 0.500000
vt 0.343750 1.000000
vt 0.250000 0.687500
vt 0.250000 0.625000
vt 0.250000 0.562500
vt 0.250000 0.500000
vt 0.281250 1.000000
vt 0.250000 0.937500
vt 0.250000 0.875000
vt 0.250000 0.812500
vt 0.250000 0.750000
vt 0.187500 0.875000
vt 0.187500 0.812500
vt 0.187500 0.750000
vt 0.187500 0.687500
vt 0.187500 0.625000
vt 0.187500 0.562500
vt 0.187500 0.500000
vt 0.218750 1.000000
vt 0.187500 0.937500
vt 0.125000 0.625000
vt 0.125000 0.562500
vt 0.125000 0.500000
vt 0.156250 1.000000
vt 0.125000 0.937500
vt 0.125000 0.875000
vt 0.125000 0.812500
vt 0.125000 0.750000
vt 0.125000 0.687500
vt 0.062500 0.812500
vt 0.062500 0.750000
vt 0.062500 0.687500
vt 0.062500 0.625000
vt 0.062500 0.562500
vt 0.062500 0.500000
vt 0.093750 1.000000
vt 0.062500 0.937500
vt 0.062500 0.875000
vt 0.000000 0.562500
vt 0.000000 0.500000
vt 0.031250 1.000000
vt 0.000000 0.937500
vt 0.000000 0.875000
vt 0.000000 0.812500
vt 0.000000 0.750000
vt 0.000000 0.687500
vt 0.000000 0.625000
vt 1.000000 0.750000
vt 1.000000 0.812500
vt 0.937500 0.812500
vt 0.937500 0.750000
vt 1.000000 0.687500
vt 0.937500 0.687500
vt 1.000000 0.625000
vt 0.937500 0.625000
vt 1.000000 0.562500
vt 0.937500 0.562500
vt 1.000000 0.500000
vt 0.937500 0.500000
vt 1.000000 0.937500
vt 0.968750 1.000000
vt 0.937500 0.937500
vt 1.000000 0.875000
vt 0.937500 0.875000
vt 0.875000 0.562500
vt 0.875000 0.500000
vt 0.906250 1.000000
vt 0.875000 0.937500
vt 0.875000 0.875000
vt 0.875000 0.812500
vt 0.875000 0.750000
vt 0.875000 0.687500
vt 0.875000 0.625000
vt 0.812500 0.750000
vt 0.812500 0.687500
vt 0.812500 0.625000
vt 0.812500 0.562500
vt 0.812500 0.500000
vt 0.843750 1.000000
vt 0.812500 0.937500
vt 0.812500 0.875000
vt 0.812500 0.812500
vt 0.781250 1.000000
vn 0.0689 0.0356 -0.9970
vn 0.1870 0.7174 -0.6711
vn 0.2324 0.1384 -0.9627
vn 0.4908 0.8683 -0.0719
vn 0.3540 0.8659 0.3533
vn 0.0779 0.8852 0.4586
vn 0.0726 0.6790 -0.7305
vn 0.0232 0.2749 -0.9612
vn 0.1744 0.1500 -0.9732
vn 0.3060 0.0442 -0.9510
vn 0.2037 0.6173 -0.7599
vn 0.5166 0.1396 -0.8447
vn 0.4251 0.8986 -0.1082
vn 0.2693 0.9293 0.2529
vn -0.0942 0.8700 0.4839
vn -0.0872 0.9791 -0.1838
vn 0.3198 0.9221 -0.2178
vn 0.0590 0.9976 -0.0366
vn -0.3862 0.8887 0.2470
vn -0.0621 0.9870 0.1484
vn 0.8796 0.0289 -0.4748
vn 0.8644 0.1718 -0.4726
vn 0.6608 0.5912 -0.4624
vn 0.8062 0.1003 -0.5830
vn 0.9855 -0.1601 -0.0558
vn 0.9603 0.2719 0.0629
vn 0.7515 0.6585 -0.0396
vn 0.9785 0.0824 -0.1893
vn 0.2474 0.8985 -0.3627
vn -0.1001 0.9309 -0.3513
vn -0.4842 0.8682 -0.1089
vn 0.0847 0.9962 0.0216
vn -0.1056 0.8705 -0.4806
vn -0.3663 0.9037 -0.2216
vn 0.3381 0.8969 0.2850
vn 0.9130 -0.1258 0.3881
vn 0.9169 0.2395 0.3193
vn 0.6447 0.6512 0.4004
vn 0.9451 0.1426 0.2941
vn 0.2410 0.8502 -0.4680
vn 0.5558 -0.1260 0.8217
vn 0.2895 0.6831 0.6706
vn 0.7408 0.2651 0.6172
vn 0.3000 0.7584 -0.5787
vn 0.0125 0.7463 -0.6655
vn -0.0468 0.8894 -0.4547
vn 0.5118 0.8523 0.1081
vn 0.8358 -0.0876 0.5420
vn 0.1239 0.7149 -0.6882
vn 0.2591 0.9119 -0.3182
vn 0.4995 0.8657 -0.0322
vn 0.7709 -0.2182 0.5984
vn 0.7062 -0.3075 0.6377
vn 0.4386 0.7583 0.4822
vn 0.5367 0.3140 0.7832
vn 0.3460 0.7201 -0.6014
vn 0.5999 -0.1271 0.7900
vn 0.5861 0.5598 0.5858
vn 0.2862 0.2311 0.9299
vn 0.2850 0.7495 -0.5976
vn -0.0665 0.8160 -0.5743
vn -0.4327 0.8653 0.2529
vn -0.6245 0.6155 0.4808
vn -0.1530 -0.0864 0.9844
vn -0.4644 0.7798 0.4199
vn -0.5590 0.5858 0.5868
vn -0.5514 0.2474 0.7967
vn -0.5981 0.2119 0.7729
vn -0.5757 0.4408 0.6887
vn -0.3297 0.2428 0.9123
vn 0.2634 0.7546 -0.6010
vn 0.0233 0.8924 -0.4507
vn -0.7833 0.6177 -0.0701
vn -0.6392 0.4650 0.6126
vn 0.3864 0.7424 -0.5473
vn 0.3056 0.9028 -0.3025
vn -0.3853 0.7192 0.5782
vn -0.5683 0.5217 0.6363
vn -0.8008 -0.4982 0.3325
vn -0.9035 0.0123 -0.4284
vn -0.7262 0.3593 0.5861
vn -0.5089 -0.7033 0.4964
vn -0.8936 0.2863 -0.3458
vn -0.4089 0.9041 0.1242
vn -0.6272 0.4915 0.6042
vn 0.5020 0.7451 -0.4391
vn 0.4811 0.8484 -0.2209
vn -0.5296 0.6207 0.5781
vn -0.8732 0.4855 0.0434
vn 0.5580 0.7690 -0.3118
vn 0.5394 0.8074 -0.2390
vn -0.8185 0.5671 0.0918
vn -0.9872 0.1588 0.0147
vn -0.4649 -0.8625 0.1999
vn -0.8877 0.4587 0.0396
vn -0.2970 0.9533 -0.0543
vn -0.9157 0.0410 -0.3997
vn -0.3896 -0.8877 -0.2453
vn -0.8672 0.4315 0.2486
vn -0.3634 0.8347 0.4138
vn -0.9007 0.4342 0.0175
vn 0.5554 0.8091 -0.1920
vn 0.5668 0.8219 -0.0576
vn -0.8026 0.5176 -0.2964
vn -0.8428 0.2365 -0.4835
vn 0.5164 0.8491 -0.1111
vn 0.5220 0.8308 0.1930
vn -0.6497 0.6242 -0.4338
vn -0.8532 0.0732 -0.5163
vn -0.4036 -0.7676 -0.4979
vn -0.7876 0.4060 0.4635
vn -0.4554 0.8687 0.1946
vn -0.6886 -0.5305 -0.4944
vn -0.9378 0.3227 0.1281
vn -0.5114 0.8319 -0.2157
vn 0.0000 -1.0000 0.0000
vn -0.5725 0.1710 -0.8019
vn 0.4592 0.8861 -0.0625
vn 0.4653 0.8213 0.3301
vn -0.1485 0.9308 -0.3339
vn -0.6313 0.3163 -0.7081
vn 0.4904 0.8685 -0.0720
vn 0.4367 0.8217 0.3663
vn 0.1409 0.9640 0.2253
vn -0.4545 0.4750 -0.7535
vn -0.4528 0.1090 -0.8850
vn -0.3657 0.0918 -0.9262
vn -0.2303 0.7863 -0.5733
vn -0.2217 0.1340 -0.9659
usemtl None
s off
f 4/1/1 3/2/1 11/3/1 12/4/1
f 5/5/2 4/1/2 12/4/2 13/6/2
f 6/7/3 5/5/3 13/6/3 14/8/3
f 1/9/4 87/10/4 7/11/4
f 128/12/5 1/9/5 7/11/5 8/13/5
f 129/14/6 128/12/6 8/13/6 9/15/6
f 2/16/7 129/14/7 9/15/7 10/17/7
f 3/2/8 2/16/8 10/17/8 11/3/8
f 11/3/9 10/17/9 18/18/9 19/19/9
f 12/4/10 11/3/10 19/19/10 20/20/10
f 13/6/11 12/4/11 20/20/11 21/21/11
f 14/8/12 13/6/12 21/21/12 22/22/12
f 7/11/13 87/23/13 15/24/13
f 8/13/14 7/11/14 15/24/14 16/25/14
f 9/15/15 8/13/15 16/25/15 17/26/15
f 10/17/16 9/15/16 17/26/16 18/18/16
f 15/24/17 87/27/17 23/28/17
f 16/25/18 15/24/18 23/28/18 24/29/18
f 17/26/19 16/25/19 24/29/19 25/30/19
f 18/18/20 17/26/20 25/30/20 26/31/20
f 19/19/21 18/18/21 26/31/21 27/32/21
f 20/20/22 19/19/22 27/32/22 28/33/22
f 21/21/23 20/20/23 28/33/23 29/34/23
f 22/22/24 21/21/24 29/34/24 30/35/24
f 27/32/25 26/31/25 34/36/25 35/37/25
f 28/33/26 27/32/26 35/37/26 36/38/26
f 29/34/27 28/33/27 36/38/27 37/39/27
f 30/35/28 29/34/28 37/39/28 38/40/28
f 23/28/29 87/41/29 31/42/29
f 24/29/30 23/28/30 31/42/30 32/43/30
f 25/30/31 24/29/31 32/43/31 33/44/31
f 26/31/32 25/30/32 33/44/32 34/36/32
f 32/43/33 31/42/33 39/45/33 40/46/33
f 33/44/34 32/43/34 40/46/34 41/47/34
f 34/36/35 33/44/35 41/47/35 42/48/35
f 35/37/36 34/36/36 42/48/36 43/49/36
f 36/38/37 35/37/37 43/49/37 44/50/37
f 37/39/38 36/38/38 44/50/38 45/51/38
f 38/40/39 37/39/39 45/51/39 46/52/39
f 31/42/40 87/53/40 39/45/40
f 44/50/41 43/49/41 51/54/41 52/55/41
f 45/51/42 44/50/42 52/55/42 53/56/42
f 46/52/43 45/51/43 53/56/43 54/57/43
f 39/45/44 87/58/44 47/59/44
f 40/46/45 39/45/45 47/59/45 48/60/45
f 41/47/46 40/46/46 48/60/46 49/61/46
f 42/48/47 41/47/47 49/61/47 50/62/47
f 43/49/48 42/48/48 50/62/48 51/54/48
f 48/60/49 47/59/49 55/63/49 56/64/49
f 49/61/50 48/60/50 56/64/50 57/65/50
f 50/62/51 49/61/51 57/65/51 58/66/51
f 51/54/52 50/62/52 58/66/52 59/67/52
f 52/55/53 51/54/53 59/67/53 60/68/53
f 53/56/54 52/55/54 60/68/54 61/69/54
f 54/57/55 53/56/55 61/69/55 62/70/55
f 47/59/56 87/71/56 55/63/56
f 60/68/57 59/67/57 67/72/57 68/73/57
f 61/69/58 60/68/58 68/73/58 69/74/58
f 62/70/59 61/69/59 69/74/59 70/75/59
f 55/63/60 87/76/60 63/77/60
f 56/64/61 55/63/61 63/77/61 64/78/61
f 57/65/62 56/64/62 64/78/62 65/79/62
f 58/66/63 57/65/63 65/79/63 66/80/63
f 59/67/64 58/66/64 66/80/64 67/72/64
f 65/79/65 64/78/65 72/81/65 73/82/65
f 66/80/66 65/79/66 73/82/66 74/83/66
f 67/72/67 66/80/67 74/83/67 75/84/67
f 68/73/68 67/72/68 75/84/68 76/85/68
f 69/74/69 68/73/69 76/85/69 77/86/69
f 70/75/70 69/74/70 77/86/70 78/87/70
f 63/77/71 87/88/71 71/89/71
f 64/78/72 63/77/72 71/89/72 72/81/72
f 77/86/73 76/85/73 84/90/73 85/91/73
f 78/87/74 77/86/74 85/91/74 86/92/74
f 71/89/75 87/93/75 79/94/75
f 72/81/76 71/89/76 79/94/76 80/95/76
f 73/82/77 72/81/77 80/95/77 81/96/77
f 74/83/78 73/82/78 81/96/78 82/97/78
f 75/84/79 74/83/79 82/97/79 83/98/79
f 76/85/80 75/84/80 83/98/80 84/90/80
f 82/97/81 81/96/81 90/99/81 91/100/81
f 83/98/82 82/97/82 91/100/82 92/101/82
f 84/90/83 83/98/83 92/101/83 93/102/83
f 85/91/84 84/90/84 93/102/84 94/103/84
f 86/92/85 85/91/85 94/103/85 95/104/85
f 79/94/86 87/105/86 88/106/86
f 80/95/87 79/94/87 88/106/87 89/107/87
f 81/96/88 80/95/88 89/107/88 90/99/88
f 95/104/89 94/103/89 102/108/89 103/109/89
f 88/106/90 87/110/90 96/111/90
f 89/107/91 88/106/91 96/111/91 97/112/91
f 90/99/92 89/107/92 97/112/92 98/113/92
f 91/100/93 90/99/93 98/113/93 99/114/93
f 92/101/94 91/100/94 99/114/94 100/115/94
f 93/102/95 92/101/95 100/115/95 101/116/95
f 94/103/96 93/102/96 101/116/96 102/108/96
f 99/117/97 98/118/97 106/119/97 107/120/97
f 100/121/98 99/117/98 107/120/98 108/122/98
f 101/123/99 100/121/99 108/122/99 109/124/99
f 102/125/100 101/123/100 109/124/100 110/126/100
f 103/127/101 102/125/101 110/126/101 111/128/101
f 96/129/102 87/130/102 104/131/102
f 97/132/103 96/129/103 104/131/103 105/133/103
f 98/118/104 97/132/104 105/133/104 106/119/104
f 111/128/105 110/126/105 118/134/105 119/135/105
f 104/131/106 87/136/106 112/137/106
f 105/133/107 104/131/107 112/137/107 113/138/107
f 106/119/108 105/133/108 113/138/108 114/139/108
f 107/120/109 106/119/109 114/139/109 115/140/109
f 108/122/110 107/120/110 115/140/110 116/141/110
f 109/124/111 108/122/111 116/141/111 117/142/111
f 110/126/112 109/124/112 117/142/112 118/134/112
f 116/141/113 115/140/113 123/143/113 124/144/113
f 117/142/114 116/141/114 124/144/114 125/145/114
f 118/134/115 117/142/115 125/145/115 126/146/115
f 14/8/116 22/22/116 30/35/116 38/40/116 46/52/116 54/57/116 62/70/116 70/75/116 78/87/116 86/92/116 95/104/116 103/109/116 111/128/116 119/135/116 127/147/116 6/7/116
f 119/135/117 118/134/117 126/146/117 127/147/117
f 112/137/118 87/148/118 120/149/118
f 113/138/119 112/137/119 120/149/119 121/150/119
f 114/139/120 113/138/120 121/150/120 122/151/120
f 115/140/121 114/139/121 122/151/121 123/143/121
f 120/149/122 87/152/122 1/9/122
f 121/150/123 120/149/123 1/9/123 128/12/123
f 122/151/124 121/150/124 128/12/124 129/14/124
f 123/143/125 122/151/125 129/14/125 2/16/125
f 124/144/126 123/143/126 2/16/126 3/2/126
f 125/145/127 124/144/127 3/2/127 4/1/127
f 126/146/128 125/145/128 4/1/128 5/5/128
f 127/147/129 126/146/129 5/5/129 6/7/129
