# Blender v2.92.0 OBJ File: 'untitled2.blend'
# www.blender.org
mtllib untitled2.mtl
o Sphere
v -0.276601 0.441958 -0.101964
v -0.202847 0.351529 -0.287638
v -0.153406 0.233553 -0.571779
v -0.030265 0.278612 -0.832098
v -0.000192 0.194443 -0.980447
v 0.000000 -0.534788 -1.000000
v -0.231267 0.433982 -0.096431
v -0.193240 0.416394 -0.138036
v -0.112228 0.380797 -0.200649
v -0.052357 0.266171 -0.362398
v 0.083756 0.196917 -0.545391
v 0.259529 0.233342 -0.707591
v 0.375330 0.195090 -0.906127
v 0.382684 -0.534788 -0.923880
v -0.168617 0.424017 -0.072895
v -0.105681 0.393306 -0.111809
v -0.053593 0.319074 -0.180475
v 0.024063 0.173036 -0.317586
v 0.276213 0.191201 -0.449621
v 0.533631 0.227945 -0.600455
v 0.640496 0.160451 -0.657576
v 0.707107 -0.534788 -0.707107
v -0.097776 0.423619 -0.038264
v -0.052111 0.365805 -0.072121
v 0.010742 0.273722 -0.131935
v 0.134720 0.125984 -0.203644
v 0.422285 0.161633 -0.291689
v 0.693190 0.191367 -0.351428
v 0.892478 0.180895 -0.377118
v 0.923880 -0.534788 -0.382683
v -0.074891 0.404762 -0.000925
v -0.029338 0.313519 -0.014285
v 0.059506 0.217119 -0.033089
v 0.205570 0.134439 -0.045710
v 0.432827 0.140408 -0.045033
v 0.660276 0.084519 -0.052920
v 0.877789 0.071390 -0.009603
v 1.000000 -0.534788 0.000000
v -0.076258 0.388959 0.032739
v -0.025935 0.299785 0.057970
v 0.056435 0.213005 0.087330
v 0.172844 0.109747 0.125263
v 0.377562 0.069192 0.172566
v 0.616389 0.074749 0.260709
v 0.763130 0.053750 0.356450
v 0.923880 -0.534788 0.382684
v -0.082814 0.394939 0.063342
v -0.044377 0.317092 0.122175
v 0.023414 0.252835 0.196937
v 0.130093 0.198605 0.302797
v 0.311403 0.211201 0.463744
v 0.522002 0.263776 0.577406
v 0.693512 0.195089 0.693513
v 0.707107 -0.534788 0.707107
v -0.099301 0.410681 0.084511
v -0.074412 0.353746 0.167506
v -0.034366 0.305082 0.272924
v 0.035850 0.271032 0.421675
v 0.164208 0.285872 0.638334
v 0.349667 0.377477 0.850234
v 0.375330 0.195090 0.906128
v 0.382683 -0.534788 0.923880
v -0.123458 0.429061 0.093663
v -0.111880 0.403936 0.186155
v -0.104504 0.374920 0.300635
v -0.081943 0.362981 0.454421
v -0.040582 0.385553 0.666565
v -0.001142 0.376987 0.893562
v -0.000000 0.195090 0.980786
v -0.000000 -0.534788 1.000000
v -0.155028 0.441814 0.090735
v -0.156924 0.454539 0.174611
v -0.177815 0.452036 0.281939
v -0.209435 0.442405 0.416760
v -0.249179 0.436940 0.590116
v -0.326896 0.367265 0.791289
v -0.375330 0.195090 0.906128
v -0.382684 -0.534788 0.923880
v -0.183343 0.451674 0.073272
v -0.226812 0.454356 0.132052
v -0.265981 0.486388 0.202345
v -0.323062 0.526212 0.326091
v -0.436466 0.471203 0.449051
v -0.603448 0.366411 0.609703
v -0.693520 0.195090 0.693520
v -0.707107 -0.534788 0.707107
v -0.163501 0.442993 -0.006317
v -0.202636 0.462351 0.045132
v -0.256967 0.472398 0.092650
v -0.313797 0.508891 0.120157
v -0.410545 0.528147 0.174259
v -0.584944 0.486416 0.256537
v -0.760406 0.362940 0.324582
v -0.906127 0.195090 0.375330
v -0.923880 -0.534788 0.382683
v -0.249629 0.447280 0.026804
v -0.289215 0.468749 0.056868
v -0.339693 0.544144 0.022783
v -0.442028 0.533818 -0.004600
v -0.628850 0.478243 -0.004469
v -0.862140 0.370778 -0.002216
v -0.980785 0.195090 0.000000
v -1.000000 -0.534788 -0.000000
v -0.287865 0.454960 -0.007500
v -0.314907 0.490246 -0.020277
v -0.359223 0.508665 -0.116734
v -0.417952 0.549581 -0.185690
v -0.585959 0.475727 -0.252882
v -0.839599 0.379802 -0.349517
v -0.906127 0.195090 -0.375330
v -0.923880 -0.534788 -0.382684
v -0.305047 0.458764 -0.059482
v -0.313070 0.480560 -0.107719
v -0.305728 0.501914 -0.213431
v -0.341904 0.513825 -0.311815
v -0.455706 0.480984 -0.463282
v -0.628128 0.375794 -0.628642
v -0.693520 0.195090 -0.693520
v -0.707107 -0.534788 -0.707107
v -0.302429 0.448493 -0.089846
v -0.298464 0.459724 -0.147195
v -0.245034 0.480909 -0.230157
v -0.270801 0.427082 -0.317177
v -0.294692 0.380213 -0.508439
v -0.319884 0.310105 -0.737693
v -0.375209 0.194745 -0.905784
v -0.382683 -0.534788 -0.923880
v -0.257353 0.445085 -0.156344
v -0.183448 0.441034 -0.215839
vt 0.750000 0.625000
vt 0.750000 0.687500
vt 0.687500 0.687500
vt 0.687500 0.625000
vt 0.750000 0.562500
vt 0.687500 0.562500
vt 0.750000 0.500000
vt 0.687500 0.500000
vt 0.750000 0.937500
vt 0.718750 1.000000
vt 0.687500 0.937500
vt 0.750000 0.875000
vt 0.687500 0.875000
vt 0.750000 0.812500
vt 0.687500 0.812500
vt 0.750000 0.750000
vt 0.687500 0.750000
vt 0.625000 0.750000
vt 0.625000 0.687500
vt 0.625000 0.625000
vt 0.625000 0.562500
vt 0.625000 0.500000
vt 0.656250 1.000000
vt 0.625000 0.937500
vt 0.625000 0.875000
vt 0.625000 0.812500
vt 0.593750 1.000000
vt 0.562500 0.937500
vt 0.562500 0.875000
vt 0.562500 0.812500
vt 0.562500 0.750000
vt 0.562500 0.687500
vt 0.562500 0.625000
vt 0.562500 0.562500
vt 0.562500 0.500000
vt 0.500000 0.750000
vt 0.500000 0.687500
vt 0.500000 0.625000
vt 0.500000 0.562500
vt 0.500000 0.500000
vt 0.531250 1.000000
vt 0.500000 0.937500
vt 0.500000 0.875000
vt 0.500000 0.812500
vt 0.437500 0.937500
vt 0.437500 0.875000
vt 0.437500 0.812500
vt 0.437500 0.750000
vt 0.437500 0.687500
vt 0.437500 0.625000
vt 0.437500 0.562500
vt 0.437500 0.500000
vt 0.468750 1.000000
vt 0.375000 0.687500
vt 0.375000 0.625000
vt 0.375000 0.562500
vt 0.375000 0.500000
vt 0.406250 1.000000
vt 0.375000 0.937500
vt 0.375000 0.875000
vt 0.375000 0.812500
vt 0.375000 0.750000
vt 0.312500 0.937500
vt 0.312500 0.875000
vt 0.312500 0.812500
vt 0.312500 0.750000
vt 0.312500 0.687500
vt 0.312500 0.625000
vt 0.312500 0.562500
vt 0.312500 0.500000
vt 0.343750 1.000000
vt 0.250000 0.687500
vt 0.250000 0.625000
vt 0.250000 0.562500
vt 0.250000 0.500000
vt 0.281250 1.000000
vt 0.250000 0.937500
vt 0.250000 0.875000
vt 0.250000 0.812500
vt 0.250000 0.750000
vt 0.187500 0.875000
vt 0.187500 0.812500
vt 0.187500 0.750000
vt 0.187500 0.687500
vt 0.187500 0.625000
vt 0.187500 0.562500
vt 0.187500 0.500000
vt 0.218750 1.000000
vt 0.187500 0.937500
vt 0.125000 0.625000
vt 0.125000 0.562500
vt 0.125000 0.500000
vt 0.156250 1.000000
vt 0.125000 0.937500
vt 0.125000 0.875000
vt 0.125000 0.812500
vt 0.125000 0.750000
vt 0.125000 0.687500
vt 0.062500 0.812500
vt 0.062500 0.750000
vt 0.062500 0.687500
vt 0.062500 0.625000
vt 0.062500 0.562500
vt 0.062500 0.500000
vt 0.093750 1.000000
vt 0.062500 0.937500
vt 0.062500 0.875000
vt 0.000000 0.562500
vt 0.000000 0.500000
vt 0.031250 1.000000
vt 0.000000 0.937500
vt 0.000000 0.875000
vt 0.000000 0.812500
vt 0.000000 0.750000
vt 0.000000 0.687500
vt 0.000000 0.625000
vt 1.000000 0.750000
vt 1.000000 0.812500
vt 0.937500 0.812500
vt 0.937500 0.750000
vt 1.000000 0.687500
vt 0.937500 0.687500
vt 1.000000 0.625000
vt 0.937500 0.625000
vt 1.000000 0.562500
vt 0.937500 0.562500
vt 1.000000 0.500000
vt 0.937500 0.500000
vt 1.000000 0.937500
vt 0.968750 1.000000
vt 0.937500 0.937500
vt 1.000000 0.875000
vt 0.937500 0.875000
vt 0.875000 0.562500
vt 0.875000 0.500000
vt 0.906250 1.000000
vt 0.875000 0.937500
vt 0.875000 0.875000
vt 0.875000 0.812500
vt 0.875000 0.750000
vt 0.875000 0.687500
vt 0.875000 0.625000
vt 0.812500 0.750000
vt 0.812500 0.687500
vt 0.812500 0.625000
vt 0.812500 0.562500
vt 0.812500 0.500000
vt 0.843750 1.000000
vt 0.812500 0.937500
vt 0.812500 0.875000
vt 0.812500 0.812500
vt 0.781250 1.000000
vn 0.0805 0.9666 0.2434
vn 0.1457 0.9506 -0.2742
vn 0.1945 0.0261 -0.9805
vn 0.1968 0.9499 -0.2430
vn 0.3093 0.9501 0.0414
vn 0.4637 0.8262 0.3200
vn 0.3269 0.7389 -0.5892
vn 0.2584 0.9278 -0.2692
vn 0.2615 0.9504 0.1682
vn -0.0479 0.9853 0.1641
vn 0.2104 0.9545 -0.2115
vn 0.6205 0.0691 -0.7811
vn 0.2535 0.9250 -0.2831
vn 0.2771 0.9366 -0.2143
vn 0.5323 0.8320 -0.1564
vn 0.7770 0.6059 -0.1709
vn 0.1429 0.9489 -0.2814
vn 0.4146 0.8248 -0.3845
vn 0.6557 0.6900 -0.3065
vn 0.6582 0.6806 -0.3219
vn 0.0106 0.9650 0.2620
vn -0.0460 0.9799 0.1939
vn 0.2104 0.9684 -0.1340
vn 0.7867 0.0786 -0.6123
vn -0.0727 0.9963 0.0461
vn 0.0822 0.9694 0.2311
vn 0.0406 0.9494 0.3113
vn 0.9913 0.1150 -0.0644
vn 0.3744 0.8996 0.2248
vn 0.8507 0.5254 -0.0153
vn 0.7901 0.6097 0.0630
vn 0.6165 0.7745 -0.1420
vn 0.8741 0.4720 0.1148
vn 0.7274 0.6834 0.0621
vn 0.5619 0.8136 0.1495
vn 0.0497 0.9670 0.2499
vn 0.0778 0.9833 0.1644
vn 0.0716 0.9958 0.0569
vn 0.9417 0.2304 0.2454
vn 0.3400 0.8459 0.4109
vn 0.0911 0.8845 -0.4576
vn 0.4446 0.8394 -0.3126
vn 0.9196 0.1328 0.3698
vn 0.5414 0.8394 -0.0480
vn 0.8564 0.5062 0.1015
vn 0.7152 0.6987 -0.0179
vn 0.6385 0.7510 -0.1681
vn 0.2667 0.8877 -0.3753
vn 0.8256 0.5443 0.1487
vn 0.7168 0.6972 0.0079
vn 0.5533 0.8272 -0.0976
vn 0.2433 0.9324 -0.2672
vn -0.0104 0.9189 -0.3943
vn 0.5654 0.7199 0.4027
vn 0.5554 0.0258 0.8312
vn 0.5895 0.7967 -0.1333
vn 0.1385 0.9577 -0.2522
vn 0.1487 0.3711 0.9166
vn 0.1950 0.0258 0.9805
vn 0.5731 0.8112 -0.1165
vn 0.7637 0.6310 0.1364
vn 0.7557 0.6515 0.0672
vn 0.6358 0.7678 -0.0783
vn 0.4576 0.8517 -0.2554
vn 0.7092 0.6907 0.1414
vn 0.5992 0.7968 0.0784
vn 0.3749 0.9261 -0.0427
vn 0.0161 0.9833 0.1811
vn -0.2177 0.5055 0.8349
vn -0.1950 0.0258 0.9805
vn 0.3762 0.9263 -0.0216
vn 0.6350 0.7723 0.0194
vn -0.4521 0.5761 0.6809
vn -0.5554 0.0258 0.8312
vn 0.3388 0.9407 -0.0181
vn 0.1362 0.9886 -0.0635
vn 0.2629 0.9622 -0.0711
vn 0.4679 0.8819 0.0575
vn 0.1595 0.9479 0.2759
vn -0.1661 0.9275 0.3349
vn 0.2889 0.9550 -0.0673
vn -0.1947 0.9640 0.1814
vn -0.3985 0.8746 0.2763
vn -0.6674 0.6248 0.4052
vn -0.8312 0.0258 0.5554
vn 0.4630 0.8862 0.0188
vn 0.3086 0.9355 0.1719
vn 0.5363 0.8416 -0.0633
vn -0.9805 0.0258 0.1950
vn -0.1202 0.8956 -0.4284
vn 0.0211 0.9349 -0.3543
vn 0.7178 0.6794 -0.1522
vn 0.0623 0.9891 0.1336
vn -0.2519 0.9670 0.0377
vn -0.4732 0.8732 0.1168
vn -0.7618 0.6168 0.1983
vn 0.2190 0.9741 -0.0568
vn -0.3386 0.9406 -0.0238
vn -0.3800 0.9244 -0.0316
vn -0.8808 0.4599 -0.1127
vn -0.9805 0.0258 -0.1950
vn 0.0940 0.9887 0.1165
vn 0.6177 0.7715 -0.1523
vn 0.8166 0.5395 -0.2053
vn -0.8312 0.0258 -0.5554
vn 0.0953 0.9946 0.0413
vn 0.8970 0.4263 -0.1167
vn 0.5077 0.8581 0.0760
vn 0.4028 0.9133 0.0599
vn -0.2000 0.9572 -0.2093
vn -0.3074 0.9276 -0.2122
vn -0.7456 0.4012 -0.5321
vn 0.5268 0.7565 -0.3876
vn 0.1562 0.8713 -0.4653
vn -0.2857 0.6619 -0.6931
vn 0.0000 -1.0000 0.0000
vn -0.5550 0.0261 -0.8314
vn 0.2150 0.9306 -0.2963
vn 0.9335 0.3510 0.0739
vn 0.6437 0.6755 0.3596
vn 0.5552 0.7519 -0.3555
vn 0.1545 0.9689 -0.1932
vn 0.3506 0.9169 0.1907
vn 0.4000 0.7965 0.4533
vn 0.6320 0.4773 -0.6105
vn 0.6978 0.6876 -0.2009
vn 0.3917 0.9196 0.0313
vn -0.0933 0.8455 -0.5257
vn -0.1951 0.0263 -0.9804
usemtl None
s off
f 4/1/1 3/2/1 11/3/1 12/4/1
f 5/5/2 4/1/2 12/4/2 13/6/2
f 6/7/3 5/5/3 13/6/3 14/8/3
f 1/9/4 87/10/4 7/11/4
f 128/12/5 1/9/5 7/11/5 8/13/5
f 129/14/6 128/12/6 8/13/6 9/15/6
f 2/16/7 129/14/7 9/15/7 10/17/7
f 3/2/8 2/16/8 10/17/8 11/3/8
f 11/3/9 10/17/9 18/18/9 19/19/9
f 12/4/10 11/3/10 19/19/10 20/20/10
f 13/6/11 12/4/11 20/20/11 21/21/11
f 14/8/12 13/6/12 21/21/12 22/22/12
f 7/11/13 87/23/13 15/24/13
f 8/13/14 7/11/14 15/24/14 16/25/14
f 9/15/15 8/13/15 16/25/15 17/26/15
f 10/17/16 9/15/16 17/26/16 18/18/16
f 15/24/17 87/27/17 23/28/17
f 16/25/18 15/24/18 23/28/18 24/29/18
f 17/26/19 16/25/19 24/29/19 25/30/19
f 18/18/20 17/26/20 25/30/20 26/31/20
f 19/19/21 18/18/21 26/31/21 27/32/21
f 20/20/22 19/19/22 27/32/22 28/33/22
f 21/21/23 20/20/23 28/33/23 29/34/23
f 22/22/24 21/21/24 29/34/24 30/35/24
f 27/32/25 26/31/25 34/36/25 35/37/25
f 28/33/26 27/32/26 35/37/26 36/38/26
f 29/34/27 28/33/27 36/38/27 37/39/27
f 30/35/28 29/34/28 37/39/28 38/40/28
f 23/28/29 87/41/29 31/42/29
f 24/29/30 23/28/30 31/42/30 32/43/30
f 25/30/31 24/29/31 32/43/31 33/44/31
f 26/31/32 25/30/32 33/44/32 34/36/32
f 32/43/33 31/42/33 39/45/33 40/46/33
f 33/44/34 32/43/34 40/46/34 41/47/34
f 34/36/35 33/44/35 41/47/35 42/48/35
f 35/37/36 34/36/36 42/48/36 43/49/36
f 36/38/37 35/37/37 43/49/37 44/50/37
f 37/39/38 36/38/38 44/50/38 45/51/38
f 38/40/39 37/39/39 45/51/39 46/52/39
f 31/42/40 87/53/40 39/45/40
f 44/50/41 43/49/41 51/54/41 52/55/41
f 45/51/42 44/50/42 52/55/42 53/56/42
f 46/52/43 45/51/43 53/56/43 54/57/43
f 39/45/44 87/58/44 47/59/44
f 40/46/45 39/45/45 47/59/45 48/60/45
f 41/47/46 40/46/46 48/60/46 49/61/46
f 42/48/47 41/47/47 49/61/47 50/62/47
f 43/49/48 42/48/48 50/62/48 51/54/48
f 48/60/49 47/59/49 55/63/49 56/64/49
f 49/61/50 48/60/50 56/64/50 57/65/50
f 50/62/51 49/61/51 57/65/51 58/66/51
f 51/54/52 50/62/52 58/66/52 59/67/52
f 52/55/53 51/54/53 59/67/53 60/68/53
f 53/56/54 52/55/54 60/68/54 61/69/54
f 54/57/55 53/56/55 61/69/55 62/70/55
f 47/59/56 87/71/56 55/63/56
f 60/68/57 59/67/57 67/72/57 68/73/57
f 61/69/58 60/68/58 68/73/58 69/74/58
f 62/70/59 61/69/59 69/74/59 70/75/59
f 55/63/60 87/76/60 63/77/60
f 56/64/61 55/63/61 63/77/61 64/78/61
f 57/65/62 56/64/62 64/78/62 65/79/62
f 58/66/63 57/65/63 65/79/63 66/80/63
f 59/67/64 58/66/64 66/80/64 67/72/64
f 65/79/65 64/78/65 72/81/65 73/82/65
f 66/80/66 65/79/66 73/82/66 74/83/66
f 67/72/67 66/80/67 74/83/67 75/84/67
f 68/73/68 67/72/68 75/84/68 76/85/68
f 69/74/69 68/73/69 76/85/69 77/86/69
f 70/75/70 69/74/70 77/86/70 78/87/70
f 63/77/71 87/88/71 71/89/71
f 64/78/72 63/77/72 71/89/72 72/81/72
f 77/86/73 76/85/73 84/90/73 85/91/73
f 78/87/74 77/86/74 85/91/74 86/92/74
f 71/89/75 87/93/75 79/94/75
f 72/81/76 71/89/76 79/94/76 80/95/76
f 73/82/77 72/81/77 80/95/77 81/96/77
f 74/83/78 73/82/78 81/96/78 82/97/78
f 75/84/79 74/83/79 82/97/79 83/98/79
f 76/85/80 75/84/80 83/98/80 84/90/80
f 82/97/81 81/96/81 90/99/81 91/100/81
f 83/98/82 82/97/82 91/100/82 92/101/82
f 84/90/83 83/98/83 92/101/83 93/102/83
f 85/91/84 84/90/84 93/102/84 94/103/84
f 86/92/85 85/91/85 94/103/85 95/104/85
f 79/94/86 87/105/86 88/106/86
f 80/95/87 79/94/87 88/106/87 89/107/87
f 81/96/88 80/95/88 89/107/88 90/99/88
f 95/104/89 94/103/89 102/108/89 103/109/89
f 88/106/90 87/110/90 96/111/90
f 89/107/91 88/106/91 96/111/91 97/112/91
f 90/99/92 89/107/92 97/112/92 98/113/92
f 91/100/93 90/99/93 98/113/93 99/114/93
f 92/101/94 91/100/94 99/114/94 100/115/94
f 93/102/95 92/101/95 100/115/95 101/116/95
f 94/103/96 93/102/96 101/116/96 102/108/96
f 99/117/97 98/118/97 106/119/97 107/120/97
f 100/121/98 99/117/98 107/120/98 108/122/98
f 101/123/99 100/121/99 108/122/99 109/124/99
f 102/125/100 101/123/100 109/124/100 110/126/100
f 103/127/101 102/125/101 110/126/101 111/128/101
f 96/129/102 87/130/102 104/131/102
f 97/132/103 96/129/103 104/131/103 105/133/103
f 98/118/104 97/132/104 105/133/104 106/119/104
f 111/128/105 110/126/105 118/134/105 119/135/105
f 104/131/106 87/136/106 112/137/106
f 105/133/107 104/131/107 112/137/107 113/138/107
f 106/119/108 105/133/108 113/138/108 114/139/108
f 107/120/109 106/119/109 114/139/109 115/140/109
f 108/122/110 107/120/110 115/140/110 116/141/110
f 109/124/111 108/122/111 116/141/111 117/142/111
f 110/126/112 109/124/112 117/142/112 118/134/112
f 116/141/113 115/140/113 123/143/113 124/144/113
f 117/142/114 116/141/114 124/144/114 125/145/114
f 118/134/115 117/142/115 125/145/115 126/146/115
f 14/8/116 22/22/116 30/35/116 38/40/116 46/52/116 54/57/116 62/70/116 70/75/116 78/87/116 86/92/116 95/104/116 103/109/116 111/128/116 119/135/116 127/147/116 6/7/116
f 119/135/117 118/134/117 126/146/117 127/147/117
f 112/137/118 87/148/118 120/149/118
f 113/138/119 112/137/119 120/149/119 121/150/119
f 114/139/120 113/138/120 121/150/120 122/151/120
f 115/140/121 114/139/121 122/151/121 123/143/121
f 120/149/122 87/152/122 1/9/122
f 121/150/123 120/149/123 1/9/123 128/12/123
f 122/151/124 121/150/124 128/12/124 129/14/124
f 123/143/125 122/151/125 129/14/125 2/16/125
f 124/144/126 123/143/126 2/16/126 3/2/126
f 125/145/127 124/144/127 3/2/127 4/1/127
f 126/146/128 125/145/128 4/1/128 5/5/128
f 127/147/129 126/146/129 5/5/129 6/7/129
